<svg width="46" height="45" viewBox="0 0 46 45" fill="none" xmlns="http://www.w3.org/2000/svg">
<path d="M1.2746 22.4996C24.9885 22.4272 23.5 12.9502 23.5 0C23.5 19.6 27.5 22.5 46 22.5C25.9 22.5 23.5 28.5 23.5 45C23.5 24.3335 15.4049 22.4897 1.2746 22.4996C1.18344 22.4999 1.09191 22.5 1 22.5C1.09179 22.4998 1.18332 22.4996 1.2746 22.4996Z" fill="#3C85FB"/>
<path d="M23.5 0C23.5 13 25 22.5 1 22.5C15.3 22.4667 23.5 24.2 23.5 45C23.5 28.5 25.9 22.5 46 22.5C27.5 22.5 23.5 19.6 23.5 0Z" stroke="#3A86FE"/>
</svg>
